<svg width="40" height="40" viewBox="0 0 40 40" fill="none" xmlns="http://www.w3.org/2000/svg">
<g clip-path="url(#clip0_39_157)">
<path d="M31.6667 6.66671H30V3.33337H26.6667V6.66671H13.3333V3.33337H10V6.66671H8.33333C6.48333 6.66671 5.01667 8.16671 5.01667 10L5 33.3334C5 35.1667 6.48333 36.6667 8.33333 36.6667H31.6667C33.5 36.6667 35 35.1667 35 33.3334V10C35 8.16671 33.5 6.66671 31.6667 6.66671ZM31.6667 33.3334H8.33333V16.6667H31.6667V33.3334ZM15 23.3334H11.6667V20.0001H15V23.3334ZM21.6667 23.3334H18.3333V20.0001H21.6667V23.3334ZM28.3333 23.3334H25V20.0001H28.3333V23.3334ZM15 30.0001H11.6667V26.6667H15V30.0001ZM21.6667 30.0001H18.3333V26.6667H21.6667V30.0001ZM28.3333 30.0001H25V26.6667H28.3333V30.0001Z" fill="white"/>
</g>
<defs>
<clipPath id="clip0_39_157">
<rect width="40" height="40" fill="white"/>
</clipPath>
</defs>
</svg>
