<svg width="31" height="21" viewBox="0 0 31 21" fill="none" xmlns="http://www.w3.org/2000/svg">
<path d="M19.6429 19.53C19 19.5533 18.3871 19.5711 17.8043 19.5832C17.2205 19.5944 16.7024 19.6 16.25 19.6H14.7857C13.0952 19.6 11.5119 19.5767 10.0357 19.53C8.77381 19.4833 7.52952 19.4189 6.30286 19.3368C5.07714 19.2556 4.19048 19.145 3.64286 19.005C3.02381 18.8417 2.4881 18.5383 2.03571 18.095C1.58333 17.6517 1.27381 17.1267 1.10714 16.52C0.964286 15.9833 0.851429 15.33 0.768571 14.56C0.684762 13.79 0.619048 13.055 0.571429 12.355C0.523809 11.515 0.5 10.6633 0.5 9.8C0.5 8.93667 0.523809 8.085 0.571429 7.245C0.619048 6.545 0.684762 5.81 0.768571 5.04C0.851429 4.27 0.964286 3.61667 1.10714 3.08C1.27381 2.47333 1.58333 1.94833 2.03571 1.505C2.4881 1.06167 3.02381 0.758334 3.64286 0.595C4.19048 0.455 5.07714 0.343933 6.30286 0.2618C7.52952 0.1806 8.77381 0.116667 10.0357 0.0700003C11.5119 0.0233336 13.0952 0 14.7857 0C16.4762 0 18.0595 0.0233336 19.5357 0.0700003C20.7976 0.116667 22.0419 0.1806 23.2686 0.2618C24.4943 0.343933 25.381 0.455 25.9286 0.595C26.5476 0.758334 27.0833 1.06167 27.5357 1.505C27.9881 1.94833 28.2976 2.47333 28.4643 3.08C28.6071 3.61667 28.72 4.27 28.8029 5.04C28.8867 5.81 28.9524 6.545 29 7.245C29.0476 8.085 29.0714 8.93667 29.0714 9.8V10.395C28.619 10.2083 28.1548 10.0627 27.6786 9.9582C27.2024 9.85273 26.7143 9.8 26.2143 9.8C24.2381 9.8 22.5533 10.4823 21.16 11.8468C19.7676 13.2123 19.0714 14.8633 19.0714 16.8C19.0714 17.29 19.119 17.7623 19.2143 18.2168C19.3095 18.6723 19.4524 19.11 19.6429 19.53ZM11.9286 14L19.3571 9.8L11.9286 5.6V14ZM24.7857 21V18.2H21.9286V15.4H24.7857V12.6H27.6429V15.4H30.5V18.2H27.6429V21H24.7857Z" fill="white"/>
</svg>
