<svg width="40" height="40" viewBox="0 0 40 40" fill="none" xmlns="http://www.w3.org/2000/svg">
<g clip-path="url(#clip0_39_154)">
<path d="M31.5333 8.34996C31.2 7.36663 30.2667 6.66663 29.1667 6.66663H10.8333C9.73333 6.66663 8.81667 7.36663 8.46667 8.34996L5 18.3333V31.6666C5 32.5833 5.75 33.3333 6.66667 33.3333H8.33333C9.25 33.3333 10 32.5833 10 31.6666V30H30V31.6666C30 32.5833 30.75 33.3333 31.6667 33.3333H33.3333C34.25 33.3333 35 32.5833 35 31.6666V18.3333L31.5333 8.34996ZM10.8333 25C9.45 25 8.33333 23.8833 8.33333 22.5C8.33333 21.1166 9.45 20 10.8333 20C12.2167 20 13.3333 21.1166 13.3333 22.5C13.3333 23.8833 12.2167 25 10.8333 25ZM29.1667 25C27.7833 25 26.6667 23.8833 26.6667 22.5C26.6667 21.1166 27.7833 20 29.1667 20C30.55 20 31.6667 21.1166 31.6667 22.5C31.6667 23.8833 30.55 25 29.1667 25ZM8.33333 16.6666L10.8333 9.16663H29.1667L31.6667 16.6666H8.33333Z" fill="white"/>
</g>
<defs>
<clipPath id="clip0_39_154">
<rect width="40" height="40" fill="white"/>
</clipPath>
</defs>
</svg>
