<svg width="73" height="73" viewBox="0 0 73 73" fill="none" xmlns="http://www.w3.org/2000/svg">
<g clip-path="url(#clip0_38_130)">
<rect width="73" height="73" rx="36.5" fill="#AA0101"/>
<path d="M45.0878 41.6572H43.281L42.6407 41.0397C44.8819 38.4325 46.2313 35.0477 46.2313 31.3656C46.2313 23.1552 39.576 16.5 31.3656 16.5C23.1552 16.5 16.5 23.1552 16.5 31.3656C16.5 39.576 23.1552 46.2313 31.3656 46.2313C35.0477 46.2313 38.4325 44.8819 41.0397 42.6407L41.6572 43.281V45.0878L53.0923 56.5L56.5 53.0923L45.0878 41.6572ZM31.3656 41.6572C25.671 41.6572 21.074 37.0603 21.074 31.3656C21.074 25.671 25.671 21.074 31.3656 21.074C37.0603 21.074 41.6572 25.671 41.6572 31.3656C41.6572 37.0603 37.0603 41.6572 31.3656 41.6572Z" fill="white"/>
</g>
<defs>
<clipPath id="clip0_38_130">
<rect width="73" height="73" rx="36.5" fill="white"/>
</clipPath>
</defs>
</svg>
